<svg width="200" height="200" viewBox="0 0 200 200" fill="none" xmlns="http://www.w3.org/2000/svg">
<path d="M0 100C0 25 25 0 100 0C175 0 200 25 200 100C200 175 175 200 100 200C25 200 0 175 0 100Z" fill="#1B4332"/>
<path d="M143.626 116.185C143.626 127.171 139.988 136.277 132.713 143.504C125.486 150.73 116.307 154.344 105.174 154.344C100.877 154.344 97.166 154.026 94.041 153.392C90.9648 152.806 88.3525 152.073 86.2041 151.194C83.958 150.267 82.1514 149.363 80.7842 148.484C79.4658 147.557 78.416 146.8 77.6348 146.214L67.1611 155.735L62.8398 154.051C63.084 150.486 63.2793 146.629 63.4258 142.479C63.6211 138.279 63.7188 132.64 63.7188 125.56V57.0049C63.7188 55.1494 63.3281 53.4404 62.5469 51.8779C61.8145 50.2666 60.8135 49.0459 59.5439 48.2158C58.6162 47.6299 57.249 47.1172 55.4424 46.6777C53.6846 46.2383 52.0488 45.9697 50.5352 45.8721V40.5254L86.7168 38.6211L87.8154 39.793V87.4004H88.2549C91.8193 83.9336 95.4814 81.3945 99.2412 79.7832C103.001 78.1719 106.761 77.3662 110.521 77.3662C120.774 77.3662 128.855 80.8574 134.764 87.8398C140.672 94.8223 143.626 104.271 143.626 116.185ZM117.332 117.063C117.332 113.353 117.039 109.788 116.453 106.37C115.916 102.903 114.988 99.8516 113.67 97.2148C112.352 94.5781 110.618 92.4785 108.47 90.916C106.321 89.3047 103.66 88.499 100.486 88.499C97.5078 88.499 95.042 88.9873 93.0889 89.9639C91.1357 90.9404 89.3779 92.3809 87.8154 94.2852V136.912C88.1084 137.889 88.6455 139.183 89.4268 140.794C90.2568 142.356 91.0869 143.577 91.917 144.456C93.0889 145.726 94.334 146.702 95.6523 147.386C96.9707 148.021 98.8262 148.338 101.219 148.338C106.199 148.338 110.13 145.628 113.011 140.208C115.892 134.739 117.332 127.024 117.332 117.063Z" fill="white"/>
<line x1="80" y1="167" x2="121" y2="167" stroke="white" stroke-width="6"/>
</svg>
