<svg width="390" height="100" viewBox="0 0 390 100" fill="none" xmlns="http://www.w3.org/2000/svg">
	<path
		d="M165.48 79.96C149.064 79.96 133.32 64.024 133.32 44.248C133.32 23.992 146.952 9.88 165.192 9.88C180.36 9.88 190.92 21.592 190.92 27.64C190.92 29.368 189.768 30.52 187.944 30.52C182.184 30.52 182.952 12.952 163.464 12.952C150.504 12.952 139.08 24.664 139.08 41.368C139.08 61.048 152.424 74.872 167.304 74.872C179.688 74.872 186.6 65.272 189.672 57.112C190.536 55.288 193.224 55.48 192.648 58.072C189.864 68.824 181.128 79.96 165.48 79.96ZM216.392 79.96C205.64 79.96 198.632 71.512 198.632 57.016V39.736C198.632 36.472 195.176 36.472 195.176 34.936V34.84C195.176 34.168 195.656 33.784 196.424 33.592L202.376 32.248C203.528 31.96 204.296 32.056 204.296 33.208V57.4C204.296 69.688 209 76.984 217.352 76.984C225.224 76.984 231.464 70.648 231.464 60.76V39.736C231.464 36.472 227.816 36.568 227.816 34.936V34.84C227.816 34.168 228.2 33.784 228.968 33.592L235.112 32.248C236.36 31.96 237.032 32.056 237.032 33.208V71.608C237.032 78.328 242.792 75.544 242.792 77.848C242.792 79.288 241.448 79.576 238.184 79.576C234.632 79.576 231.656 77.848 231.848 72.472L231.656 71.032C228.776 76.696 223.304 79.96 216.392 79.96ZM269.928 79.96C263.208 79.96 257.448 76.6 254.088 71.32L254.184 77.848C254.184 78.52 253.704 79.096 252.936 79.096L246.504 79C245.832 79 245.352 78.712 245.352 78.232V77.944C245.352 76.504 248.808 76.6 248.808 73.432V16.312C248.808 12.568 245.256 12.664 245.256 11.224V11.032C245.256 10.552 245.64 10.264 246.6 9.784L251.88 7.288C253.512 6.51999 254.28 7.096 254.28 8.44V39.736C257.448 35.032 263.208 31.96 269.832 31.96C282.024 31.96 291.72 41.656 291.72 55.288C291.72 69.304 282.216 79.96 269.928 79.96ZM254.184 61.624H254.376C254.376 69.784 261.384 77.368 268.968 77.368C279.24 77.368 286.056 68.824 286.056 56.44C286.056 43.768 278.856 34.552 268.392 34.552C260.904 34.552 254.28 40.888 254.28 47.8V51.832L254.184 61.624ZM320.275 79.96C313.555 79.96 307.795 76.6 304.435 71.32L304.531 77.848C304.531 78.52 304.051 79.096 303.283 79.096L296.851 79C296.179 79 295.699 78.712 295.699 78.232V77.944C295.699 76.504 299.155 76.6 299.155 73.432V16.312C299.155 12.568 295.603 12.664 295.603 11.224V11.032C295.603 10.552 295.987 10.264 296.947 9.784L302.227 7.288C303.859 6.51999 304.627 7.096 304.627 8.44V39.736C307.795 35.032 313.555 31.96 320.179 31.96C332.371 31.96 342.067 41.656 342.067 55.288C342.067 69.304 332.563 79.96 320.275 79.96ZM304.531 61.624H304.723C304.723 69.784 311.731 77.368 319.315 77.368C329.587 77.368 336.403 68.824 336.403 56.44C336.403 43.768 329.203 34.552 318.739 34.552C311.251 34.552 304.627 40.888 304.627 47.8V51.832L304.531 61.624ZM349.633 99.16C343.297 99.16 339.073 94.648 339.073 91.576C339.073 89.944 340.033 88.792 341.665 88.792C345.217 88.792 344.353 96.568 350.881 96.568C355.297 96.568 359.521 90.232 363.457 80.44L345.313 39.16C343.585 35.32 341.089 35.8 341.089 34.072V33.88C341.089 33.208 341.569 32.92 342.241 32.92H351.937C352.705 32.92 353.089 33.208 353.089 33.88V34.072C353.089 35.8 349.825 35.416 351.361 39.16L366.433 75.064L381.889 39.544C383.809 35.224 378.529 35.8 378.529 34.072V33.88C378.529 33.208 379.009 32.92 379.777 32.92H388.225C388.801 32.92 389.377 33.208 389.377 33.88V34.072C389.377 35.8 387.073 35.224 385.249 39.16L367.105 79.576C363.073 88.792 358.849 99.16 349.633 99.16Z"
		fill="#0F0102"
	/>
	<path
		d="M62.1848 50.9953H105V54.7967H62.1848C62.0965 55.2417 61.9829 55.674 61.8315 56.1063L98.9304 77.6817L97.0376 80.9873L59.9387 59.4119L56.5443 57.4412C57.7935 56.3097 58.5885 54.7077 58.5885 52.8897C58.5885 49.5078 55.8629 46.7616 52.5063 46.7616C49.1497 46.7616 46.4241 49.5078 46.4241 52.8897C46.4241 54.7077 47.2191 56.3224 48.4683 57.4412L45.3641 59.2466L7.975 81L6.0822 77.6944L43.1811 56.1063C43.0423 55.6867 42.9161 55.2417 42.8278 54.7967H0V50.9826H42.8152C42.9035 50.5376 43.0171 50.1053 43.1685 49.673L6.0822 28.0976L7.975 24.792L45.0613 46.3802C45.3641 46.0369 45.6796 45.7063 46.0203 45.4139L24.6064 8.03516L27.8873 6.12808L49.3138 43.5068C49.7302 43.367 50.1719 43.2398 50.6135 43.1508V0H54.3991V43.1381C54.8408 43.2271 55.2698 43.3415 55.6988 43.4941L77.1127 6.12808L80.3936 8.03516L58.9671 45.4139C59.3078 45.719 59.6359 46.0369 59.9261 46.3802L97.025 24.8047L98.9178 28.1103L61.8315 49.6858C61.9703 50.1053 62.0965 50.5503 62.1848 50.9953Z"
		fill="#0F0102"
	/>
</svg>
