<?xml version="1.0" encoding="UTF-8"?>
<svg version="1.1" xmlns="http://www.w3.org/2000/svg" width="2285" height="410">
<path d="M0 0 C24.34223502 -0.64912627 47.80642465 7.86418139 66.65625 23.125 C67.78740234 24.01058594 67.78740234 24.01058594 68.94140625 24.9140625 C88.18361752 40.86439635 100.13334121 65.79458989 102.49609375 90.49609375 C104.18733047 118.25712575 96.94933191 144.85060885 78.65625 166.125 C63.36033698 183.34938481 44.15681903 194.36681515 21.65625 199.125 C20.33367187 199.41503906 20.33367187 199.41503906 18.984375 199.7109375 C13.85803091 200.34872209 8.75492871 200.31545876 3.59375 200.3125 C1.82898315 200.3134668 1.82898315 200.3134668 0.02856445 200.31445312 C-10.07386688 200.25579944 -20.10345724 199.66268139 -30.17016602 198.83666992 C-52.19507881 197.06679679 -73.07085717 197.99800429 -90.90625 212.5 C-102.74270603 224.02359817 -108.20857329 238.95261949 -109.34375 255.125 C-109.3698559 258.86167165 -109.21064666 262.58062871 -109.03125 266.3125 C-108.98637451 267.38330811 -108.94149902 268.45411621 -108.89526367 269.55737305 C-108.62241217 275.62407596 -108.2403153 281.67292515 -107.7578125 287.7265625 C-105.30757476 318.67012489 -107.86132054 347.05140938 -127.81640625 372.19140625 C-148.3388782 396.01269904 -173.35173734 407.90551578 -204.79296875 410.3125 C-231.75394289 411.13416778 -256.51992736 400.17907299 -276.27734375 382.5 C-292.75139954 366.77995786 -305.18873992 344.18075429 -306.52075195 321.05151367 C-306.89585249 301.10543029 -306.13671433 284.30400249 -297.34375 266.125 C-296.91449219 265.22652344 -296.48523438 264.32804687 -296.04296875 263.40234375 C-284.28514049 240.38349687 -263.71738632 222.63614934 -239.22460938 214.41357422 C-234.97476073 213.11611574 -230.69217706 212.04455984 -226.34375 211.125 C-225.45945312 210.93164062 -224.57515625 210.73828125 -223.6640625 210.5390625 C-218.5810715 209.90518362 -213.52400963 209.93454517 -208.40625 209.9375 C-206.65248047 209.9365332 -206.65248047 209.9365332 -204.86328125 209.93554688 C-194.1953739 209.99743874 -183.59904445 210.62282824 -172.96508789 211.41333008 C-151.34271802 213.00904023 -132.20807034 211.77785499 -114.34375 198.125 C-102.05442644 186.87931051 -95.95959521 171.0147834 -95.17578125 154.609375 C-95.12846866 145.56320788 -95.63404492 136.64355261 -96.34375 127.625 C-99.08538576 91.85099751 -96.4113599 61.34990507 -72.34375 33.125 C-66.31825603 26.41649196 -59.93383281 20.97355448 -52.34375 16.125 C-51.58835938 15.61324219 -50.83296875 15.10148438 -50.0546875 14.57421875 C-35.19056989 4.95479816 -17.47043125 0.93175633 0 0 Z " fill="#050505" transform="translate(306.34375,-0.125)"/>
<path d="M0 0 C24.14671148 -0.65151329 47.6815482 6.76041446 65.69140625 23.125 C66.59503906 23.93582031 67.49867188 24.74664062 68.4296875 25.58203125 C89.6588696 45.63670811 99.05948178 74.48956316 99.98046875 103.15625 C100.61031317 138.18067534 93.73048957 170.22408988 68.765625 196.16796875 C50.25328927 214.52468833 25.7531327 221.4013001 0.25927734 221.37158203 C-24.88973092 221.06777968 -45.68099839 211.88861076 -63.30859375 194.125 C-64.29859375 192.805 -65.28859375 191.485 -66.30859375 190.125 C-66.63859375 223.125 -66.96859375 256.125 -67.30859375 290.125 C-84.79859375 290.125 -102.28859375 290.125 -120.30859375 290.125 C-120.30859375 196.735 -120.30859375 103.345 -120.30859375 7.125 C-106.44859375 7.125 -92.58859375 7.125 -78.30859375 7.125 C-77.97859375 21.975 -77.64859375 36.825 -77.30859375 52.125 C-74.33859375 46.515 -71.36859375 40.905 -68.30859375 35.125 C-54.36322729 16.33749241 -36.31052625 5.34757698 -13.30859375 1.125 C-8.87571152 0.50866343 -4.46513622 0.2417671 0 0 Z M-54.30859375 64.125 C-65.62407608 77.92610084 -68.67714572 91.90480192 -68.62426758 109.31933594 C-68.62110911 111.48944483 -68.64463862 113.65818369 -68.66992188 115.828125 C-68.74475228 132.23305403 -65.16132576 145.71325533 -53.6953125 157.8046875 C-40.92052762 170.22403647 -26.10517499 176.1055926 -8.30859375 176.125 C5.47150372 175.24473826 16.58484658 170.49076472 26.69140625 161.125 C27.31660156 160.55394531 27.94179687 159.98289062 28.5859375 159.39453125 C39.83349077 147.89308288 44.87970148 130.80104846 45.69140625 115.125 C45.73265625 114.34898437 45.77390625 113.57296875 45.81640625 112.7734375 C46.32355382 93.31164948 40.52211893 74.59033451 27.046875 60.34765625 C15.20351829 49.17208416 1.0460083 45.39001386 -14.890625 45.81640625 C-29.82368109 46.60201344 -44.0789621 53.16468038 -54.30859375 64.125 Z " fill="#050505" transform="translate(1414.30859375,90.875)"/>
<path d="M0 0 C17.82 0 35.64 0 54 0 C54 91.74 54 183.48 54 278 C39.81 278 25.62 278 11 278 C10.67 265.46 10.34 252.92 10 240 C7.69 243.96 5.38 247.92 3 252 C-0.39073581 256.28675779 -4.14567149 260.13441797 -8 264 C-8.64582031 264.66902344 -9.29164063 265.33804687 -9.95703125 266.02734375 C-26.5842494 282.00251412 -50.31007508 285.47642456 -72.31640625 285.2109375 C-98.26249239 284.50769742 -121.14626528 273.63905364 -139 255 C-148.76969085 244.61778935 -155.79635728 232.46616504 -160.375 219 C-160.60147217 218.33798584 -160.82794434 217.67597168 -161.0612793 216.99389648 C-165.47657025 203.01794921 -166.54718262 189.29176372 -166.4375 174.75 C-166.43445862 173.89348846 -166.43141724 173.03697693 -166.42828369 172.1545105 C-166.36153242 159.44046915 -165.88458103 147.20785 -162 135 C-161.66258789 133.92637207 -161.66258789 133.92637207 -161.31835938 132.83105469 C-152.97189579 107.13636306 -136.37312273 86.22725706 -112.25 73.8125 C-89.94559784 62.78698395 -63.08744122 60.72869491 -39.3125 68.1875 C-22.51655588 74.27426546 -11.68347236 82.75537018 -1 97 C-0.67 64.99 -0.34 32.98 0 0 Z M-97 128 C-105.07965238 137.50352554 -110.5623378 149.58878962 -112 162 C-112.13277344 163.10601562 -112.26554687 164.21203125 -112.40234375 165.3515625 C-114.19793427 184.51797819 -111.03899192 203.42426142 -99 219 C-88.19229754 231.53620706 -75.70790718 238.17081254 -59.1875 239.9375 C-43.30583349 240.62494172 -28.8061146 236.05458061 -16.5625 225.75 C-5.48722394 215.03844401 0.83829406 200.43502916 1.2653656 185.08270264 C1.3140542 182.06371581 1.3242272 179.04595151 1.31567383 176.02661133 C1.31252077 173.70280694 1.33600964 171.3802878 1.36132812 169.05664062 C1.43565335 151.8696205 -2.42024817 138.03904158 -14.52734375 125.28515625 C-27.10565724 113.66064852 -42.56278234 109.45101109 -59.27734375 109.72265625 C-74.17551922 110.32749028 -86.80628736 117.3878887 -97 128 Z " fill="#050505" transform="translate(1783,27)"/>
<path d="M0 0 C17.82 0 35.64 0 54 0 C54.33 33 54.66 66 55 100 C57.31 96.04 59.62 92.08 62 88 C70.78530126 75.94574944 84.21711329 68.11128544 98.80078125 65.3359375 C118.89777001 62.26606 141.93364321 62.89400435 158.92578125 75.36328125 C159.61027344 75.90339844 160.29476562 76.44351563 161 77 C161.73605469 77.55042969 162.47210937 78.10085937 163.23046875 78.66796875 C181.28656077 93.24336833 187.54228319 117.95951763 190 140 C190.24737686 144.75588717 190.25466013 149.49587181 190.22705078 154.25732422 C190.22648472 155.61897778 190.22680702 156.98063195 190.22793579 158.34228516 C190.2285027 161.99015549 190.2168574 165.6378906 190.20278788 169.28572989 C190.19016847 173.11602664 190.18910128 176.94632751 190.18673706 180.77664185 C190.18055488 188.00814558 190.16418889 195.23958785 190.14403808 202.47106469 C190.12157668 210.71306182 190.11066006 218.9550621 190.10064721 227.19708228 C190.07981923 244.1314297 190.04318451 261.06569259 190 278 C172.51 278 155.02 278 137 278 C136.98018066 274.24592773 136.96036133 270.49185547 136.93994141 266.62402344 C136.87291507 254.19484414 136.79537455 241.76574886 136.71247292 229.33666611 C136.66248437 221.80389152 136.61604066 214.27112708 136.578125 206.73828125 C136.54504443 200.16786798 136.5051263 193.59753671 136.45720994 187.02721429 C136.43210348 183.55262928 136.41027676 180.07809755 136.39665604 176.60344696 C136.38127182 172.71177013 136.35061272 168.82029006 136.31884766 164.92871094 C136.31668747 163.79366119 136.31452728 162.65861145 136.31230164 161.48916626 C136.16999129 147.76382448 134.37802747 134.57821795 124.75 124.0625 C115.8156812 115.95836127 104.67100353 113.50162111 92.92578125 113.6875 C83.34832757 114.44988437 75.00634848 117.34938224 68 124 C67.38511719 124.57492188 66.77023437 125.14984375 66.13671875 125.7421875 C59.01223854 133.0955054 54.91080485 143.20088158 54.84178162 153.4163208 C54.8319928 154.51565948 54.82220398 155.61499817 54.81211853 156.74765015 C54.80636307 157.94886505 54.8006076 159.15007996 54.79467773 160.38769531 C54.78477814 161.65624359 54.77487854 162.92479187 54.76467896 164.23178101 C54.73767141 167.70661987 54.71663943 171.18147225 54.69667697 174.65635777 C54.67479178 178.28922037 54.64741549 181.92204149 54.62062073 185.55487061 C54.57072808 192.43249553 54.52577655 199.31014352 54.48259836 206.18781352 C54.43319668 214.01849807 54.37828943 221.84914099 54.32291877 229.67978525 C54.20915134 245.78648649 54.1030277 261.89322594 54 278 C36.18 278 18.36 278 0 278 C0 186.26 0 94.52 0 0 Z " fill="#050505" transform="translate(571,27)"/>
<path d="M0 0 C0.74811951 0.00054382 1.49623901 0.00108765 2.26702881 0.00164795 C14.37282672 0.04202968 25.84594442 0.84305794 37.5 4.375 C38.19641602 4.58398926 38.89283203 4.79297852 39.61035156 5.00830078 C55.88544254 10.0966489 70.18457018 18.63034619 82.5 30.375 C83.37140625 31.20386719 84.2428125 32.03273438 85.140625 32.88671875 C108.21652513 56.57942753 114.06180632 86.96554123 113.71484375 118.90625 C113.21735474 143.67564054 104.50144452 168.1172911 87.5 186.375 C86.62214844 187.32117188 85.74429688 188.26734375 84.83984375 189.2421875 C65.78407043 209.27033196 38.56970816 220.70901796 11.02577209 221.76046753 C7.41191472 221.84177513 3.8019815 221.84349223 0.1875 221.8125 C-0.57180817 221.80945862 -1.33111633 221.80641724 -2.11343384 221.80328369 C-14.25116322 221.73165964 -25.82413675 220.95041 -37.5 217.375 C-38.20560059 217.16069336 -38.91120117 216.94638672 -39.63818359 216.72558594 C-53.24149185 212.42782886 -65.63782297 205.64855882 -76.5 196.375 C-77.29792969 195.72144531 -78.09585938 195.06789063 -78.91796875 194.39453125 C-92.82564246 182.55683688 -102.03201111 167.35173353 -107.875 150.1875 C-108.11379883 149.48794189 -108.35259766 148.78838379 -108.59863281 148.06762695 C-112.222309 136.73380616 -112.87301014 125.45251911 -112.87060547 113.65039062 C-112.87495607 111.27399707 -112.91133946 108.899502 -112.94921875 106.5234375 C-113.16597016 76.78679604 -101.53419402 50.84636168 -81.0625 29.625 C-59.22492994 8.35972488 -29.88312964 -0.08185347 0 0 Z M-43.5 64.375 C-49.37362016 72.01336177 -53.87733283 80.06453153 -56.5 89.375 C-56.71140625 90.08527344 -56.9228125 90.79554688 -57.140625 91.52734375 C-62.22766545 111.03977746 -59.25900804 132.30858 -49.25390625 149.7109375 C-40.55869579 162.91836186 -28.19192847 171.5958748 -12.69921875 174.98828125 C4.23989146 177.035866 21.38202731 175.81108344 35.5 165.375 C36.25667969 164.82328125 37.01335937 164.2715625 37.79296875 163.703125 C47.51283333 155.8736988 54.25276358 144.34133533 57.5 132.375 C57.72300781 131.58738281 57.94601562 130.79976563 58.17578125 129.98828125 C62.86196224 109.68149698 59.44775343 88.01664606 48.5 70.375 C39.59199121 58.50308335 27.40375462 49.12697529 12.484375 46.65625 C-8.25038949 44.70218842 -29.00173096 47.88155632 -43.5 64.375 Z " fill="#050505" transform="translate(902.5,90.625)"/>
<path d="M0 0 C0.7414325 -0.00067474 1.48286499 -0.00134949 2.24676514 -0.00204468 C13.15637855 0.01375523 23.5348647 0.38086643 34.125 3.25 C35.33671875 3.56710938 36.5484375 3.88421875 37.796875 4.2109375 C52.95860703 8.72107298 67.58885074 16.38709604 79.125 27.25 C80.04539062 28.09175781 80.96578125 28.93351562 81.9140625 29.80078125 C96.68311696 43.85782895 106.26981409 61.53493355 111.125 81.25 C111.40537109 82.3803064 111.40537109 82.3803064 111.69140625 83.53344727 C113.45807186 91.75396319 113.497253 99.95614292 113.49560547 108.32641602 C113.49994978 110.78408706 113.53629589 113.23991385 113.57421875 115.69726562 C113.76890846 143.24301416 103.92195183 167.35456584 86.125 188.25 C85.54105469 188.93835938 84.95710938 189.62671875 84.35546875 190.3359375 C67.13486783 208.90802862 38.74977093 220.23570691 13.82666016 221.53735352 C10.18305415 221.66037546 6.54349068 221.67253479 2.89819336 221.64111328 C0.69126403 221.62502744 -1.51382839 221.64107876 -3.72070312 221.66015625 C-34.27587687 221.70543822 -62.29333406 210.82160123 -84.1875 189.3125 C-106.18297727 166.95586632 -113.40735387 138.08241093 -113.22851562 107.58642578 C-112.73906729 81.82396288 -105.44278311 58.41214961 -88.875 38.25 C-88.17632813 37.38632813 -87.47765625 36.52265625 -86.7578125 35.6328125 C-64.9405671 9.97956791 -32.6974342 0.02659061 0 0 Z M-43.5546875 64.39453125 C-56.86508903 80.77484021 -60.28829331 100.59743324 -58.875 121.25 C-56.69123909 138.67392649 -49.03367561 153.95491034 -35.25 165.0625 C-20.71040729 175.50070824 -3.3641194 176.8791874 13.94140625 174.7890625 C28.32306793 171.84696565 40.44483033 163.35830714 48.82421875 151.3203125 C55.58908656 140.55340577 59.55789376 127.99756203 60.125 115.25 C60.16496094 114.57324219 60.20492188 113.89648438 60.24609375 113.19921875 C60.8435174 93.97623435 54.42171425 75.44926857 41.3203125 61.3515625 C28.51214772 49.09036562 13.19329679 45.56655116 -4.01171875 45.94140625 C-19.48666646 46.67396614 -32.95860495 53.1340641 -43.5546875 64.39453125 Z " fill="#050505" transform="translate(1148.875,90.75)"/>
<path d="M0 0 C21.92885543 17.18714135 35.06092378 41.03390957 39.66748047 68.44775391 C40.72029016 81.17718018 40.35498047 93.98736459 40.35498047 106.76025391 C-10.79501953 106.76025391 -61.94501953 106.76025391 -114.64501953 106.76025391 C-108.00477954 132.79687939 -108.00477954 132.79687939 -89.83251953 151.13525391 C-74.8969878 159.33469823 -58.09052161 160.80837749 -41.64501953 156.76025391 C-30.60905599 153.2109993 -21.7517624 147.75310587 -15.64501953 137.76025391 C-14.98501953 136.11025391 -14.32501953 134.46025391 -13.64501953 132.76025391 C2.85498047 132.76025391 19.35498047 132.76025391 36.35498047 132.76025391 C33.78271279 153.3383953 22.14244963 171.48638472 6.19091797 184.52978516 C-19.16329636 203.31225497 -51.82505941 207.26354149 -82.51220703 203.11181641 C-86.99979559 202.32674621 -91.32198093 201.19031631 -95.64501953 199.76025391 C-96.72275635 199.40616455 -96.72275635 199.40616455 -97.82226562 199.04492188 C-123.05126299 190.39736941 -142.80629231 172.31292505 -154.77050781 148.57861328 C-157.55419938 142.79052427 -159.77553226 136.90285494 -161.64501953 130.76025391 C-161.9626123 129.73109863 -161.9626123 129.73109863 -162.28662109 128.68115234 C-165.75196905 116.78034567 -166.03489546 104.80988094 -166.08251953 92.51025391 C-166.09191559 91.37215271 -166.09191559 91.37215271 -166.10150146 90.21105957 C-166.2598492 59.85259908 -156.28449044 31.62198055 -135.02001953 9.63525391 C-101.56796673 -23.46258175 -37.90607063 -28.567383 0 0 Z M-99.64501953 42.76025391 C-100.23154297 43.33775391 -100.81806641 43.91525391 -101.42236328 44.51025391 C-108.94069655 52.46859141 -111.03998868 62.3401305 -113.64501953 72.76025391 C-79.98501953 72.76025391 -46.32501953 72.76025391 -11.64501953 72.76025391 C-13.51777925 57.77817616 -19.46289107 45.30871338 -31.13720703 35.51416016 C-52.32164371 20.69825351 -82.15451507 24.73783786 -99.64501953 42.76025391 Z " fill="#050505" transform="translate(2034.64501953125,108.23974609375)"/>
<path d="M0 0 C18.15 0 36.3 0 55 0 C58.37500089 7.87500209 58.37500089 7.87500209 59.48139954 11.58764648 C59.73454422 12.4296611 59.9876889 13.27167572 60.24850464 14.13920593 C60.51494781 15.04072891 60.78139099 15.94225189 61.0559082 16.87109375 C61.49100456 18.32483147 61.49100456 18.32483147 61.93489075 19.80793762 C62.89415208 23.01662309 63.84747668 26.22704021 64.80078125 29.4375 C65.48004221 31.71397476 66.15967085 33.99033984 66.83964539 36.26660156 C68.63810377 42.2907126 70.43154168 48.31630705 72.22393799 54.34222412 C73.99330534 60.28763573 75.7673292 66.23165701 77.54101562 72.17578125 C80.32868968 81.51974723 83.11219181 90.86494587 85.89306641 100.2109375 C88.3013299 108.30452323 90.71544671 116.39631562 93.13854313 124.48547363 C94.46183974 128.90330202 95.78325936 133.32169086 97.1045742 137.7401123 C97.72616495 139.8166559 98.34871238 141.89291338 98.9722538 143.96887207 C99.82532164 146.80925668 100.67511553 149.65060108 101.52416992 152.4921875 C101.90397664 153.75187851 101.90397664 153.75187851 102.29145622 155.03701782 C104 160.77222677 104 160.77222677 104 163 C106.64 163 109.28 163 112 163 C112.21682938 162.0544223 112.43365875 161.1088446 112.65705872 160.13461304 C115.63056591 147.27834977 118.90583892 134.50397466 122.19921875 121.7265625 C122.79985965 119.39093864 123.40034562 117.05527493 124.00068665 114.71957397 C125.57552482 108.59416883 127.1524296 102.46929762 128.72979736 96.34454346 C130.30482794 90.22741016 131.87793849 84.1097832 133.45117188 77.9921875 C135.28073166 70.87810008 137.11070162 63.76411949 138.94284058 56.6506958 C141.59154063 46.36642597 144.23736006 36.0814806 146.86572266 25.79199219 C147.4937022 23.33682973 148.12182234 20.88170329 148.74997902 18.42658615 C149.31524522 16.21413792 149.878092 14.00108378 150.44084167 11.78799438 C150.77269252 10.49062978 151.10465938 9.19329484 151.43676758 7.89599609 C151.71748611 6.79420013 151.99820465 5.69240417 152.28742981 4.55722046 C153 2 153 2 154 0 C171.16 0 188.32 0 206 0 C204.80471221 5.97643897 203.62813148 11.70323762 202.05493164 17.55175781 C201.87017839 18.24204889 201.68542515 18.93233997 201.49507332 19.64354897 C200.88648878 21.91424037 200.27336889 24.18367948 199.66015625 26.453125 C199.22152763 28.085634 198.7831647 29.71821441 198.345047 31.3508606 C197.16655435 35.73905565 195.98397789 40.12614033 194.80049896 44.51299286 C193.80949668 48.18831011 192.82083331 51.86425486 191.83215332 55.54019737 C183.32168719 87.18069657 174.75665022 118.8064635 166.14961243 150.42082214 C164.12565049 157.8558778 162.10725206 165.29241244 160.09591675 172.730896 C158.95165768 176.96189068 157.80495695 181.19222109 156.65777588 185.42242432 C156.14209353 187.32636778 155.62753898 189.23061712 155.11419678 191.13519287 C154.43072902 193.67039007 153.74325313 196.2044648 153.0546875 198.73828125 C152.75933105 199.84030128 152.75933105 199.84030128 152.45800781 200.96458435 C151.11408337 205.88591663 151.11408337 205.88591663 150 207 C147.32212027 207.09512944 144.67011131 207.12555279 141.99194336 207.11352539 C141.15299026 207.11367142 140.31403717 207.11381744 139.44966125 207.1139679 C136.66302956 207.1132685 133.87646384 207.10547485 131.08984375 207.09765625 C129.16313209 207.09579217 127.23641995 207.09436822 125.30970764 207.09336853 C120.22812603 207.08954259 115.1465728 207.07971166 110.06500244 207.06866455 C104.88383366 207.05845206 99.70266031 207.05387126 94.52148438 207.04882812 C84.34764375 207.03808946 74.17382423 207.02101213 64 207 C51.72437411 168.19810022 39.45938803 129.39309952 27.34570312 90.5402832 C27.04794102 89.58528097 27.04794102 89.58528097 26.74416351 88.61098576 C26.44619747 87.6553179 26.44619747 87.6553179 26.14221191 86.68034363 C25.94335892 86.04256674 25.74450592 85.40478985 25.53962708 84.74768639 C25.13910852 83.46305137 24.73862618 82.17840507 24.33818054 80.89374733 C21.25028119 70.98864618 18.1450211 61.08908144 15.03227997 51.19176102 C13.61994801 46.699531 12.20987832 42.2065903 10.79983902 37.71364021 C9.44995125 33.41328303 8.09645904 29.11408202 6.74033356 24.81568813 C5.7141322 21.55917457 4.69344388 18.30093839 3.671875 15.04296875 C3.29796631 13.86194077 2.92405762 12.68091278 2.53881836 11.46409607 C2.03378784 9.84834435 2.03378784 9.84834435 1.51855469 8.19995117 C1.22358093 7.26269699 0.92860718 6.32544281 0.62469482 5.35978699 C0 3 0 3 0 0 Z " fill="#050505" transform="translate(2079,98)"/>
<path d="M0 0 C14.37599499 12.29092701 23.88237793 29.5264846 25.59863281 48.44580078 C26.83988401 69.39484219 22.21529227 88.54926257 8.31640625 104.7734375 C7.67445313 105.48757812 7.0325 106.20171875 6.37109375 106.9375 C5.85289062 107.54851562 5.3346875 108.15953125 4.80078125 108.7890625 C-7.20206763 121.99822785 -25.4513946 129.29316153 -42.9765625 130.19140625 C-64.01726529 130.90549142 -83.07194965 124.73812809 -98.94921875 110.625 C-110.17739049 99.36409306 -117.6881205 85.55895392 -120.62890625 69.9375 C-120.96921875 68.2359375 -120.96921875 68.2359375 -121.31640625 66.5 C-123.11551122 45.99020335 -118.50387705 26.25577695 -105.62890625 9.9375 C-78.36569339 -22.15754977 -32.82209253 -25.75046784 0 0 Z " fill="#050505" transform="translate(147.62890625,44.0625)"/>
<path d="M0 0 C14.71767209 12.67149657 24.85357423 29.79777015 26.72094727 49.37939453 C27.78999725 71.12809296 22.89744098 90.0654946 8.54296875 106.86328125 C-4.79888098 121.22554014 -22.70041163 130.24174216 -42.41015625 131.265625 C-63.42184591 131.66074241 -82.83829552 125.56215136 -98.53515625 111.1171875 C-113.73379763 95.22357842 -120.92627211 75.95411879 -120.7109375 54.09765625 C-120.06012329 37.42154647 -113.86654947 22.93640595 -103.5 10.0625 C-102.79617187 9.11310547 -102.79617187 9.11310547 -102.078125 8.14453125 C-91.98218011 -4.83172733 -75.19653018 -12.7783296 -59.23828125 -15.4921875 C-37.62300239 -18.0670483 -17.4344859 -13.3557759 0 0 Z " fill="#050505" transform="translate(355.5,251.9375)"/>
<path d="M0 0 C6.80593291 7.02019376 9.74106381 14.7740737 10.109375 24.48828125 C9.76426873 34.18576749 6.49353481 43.02796923 -0.390625 49.98828125 C-9.58427592 57.52103538 -18.67639489 59.0199693 -30.390625 57.98828125 C-39.67027345 55.86249073 -46.28160009 50.20348964 -51.765625 42.61328125 C-56.76217128 34.61609168 -57.33536656 25.74341075 -55.765625 16.61328125 C-53.68163218 8.17529632 -48.697919 0.72614057 -41.390625 -4.01171875 C-27.45397153 -11.58916495 -12.30647514 -10.35593905 0 0 Z " fill="#050505" transform="translate(1588.390625,247.01171875)"/>
</svg>
