<svg width="195" height="30" viewBox="0 0 195 30" fill="none" xmlns="http://www.w3.org/2000/svg">
<path d="M0 6.76005C0 3.97791 2.25538 1.72253 5.03752 1.72253H22.8262C25.6084 1.72253 27.8638 3.97791 27.8638 6.76005V24.5488C27.8638 27.331 25.6084 29.5863 22.8262 29.5863H18.2728C17.578 29.5863 17.0147 29.0231 17.0147 28.3281V15.0878C17.0147 13.6981 15.8881 12.5716 14.4985 12.5716H1.25812C0.563281 12.5716 0 12.0083 0 11.3135V6.76005Z" fill="#AAAAAA"/>
<path d="M10.849 21.2535C10.849 19.8639 9.72248 18.7374 8.33279 18.7374H1.25812C0.563281 18.7374 0 19.3006 0 19.9954V24.5488C0 27.331 2.25538 29.5863 5.03752 29.5863H9.59091C10.2858 29.5863 10.849 29.0231 10.849 28.3281V21.2535Z" fill="#AAAAAA"/>
<path d="M183.68 30C177.365 30 173.18 25.5395 173.18 18.8684C173.18 12.1974 177.365 7.73687 183.68 7.73687C190.864 7.73687 195.088 13.0263 194.062 20.7633H179.141C179.614 23.6842 181.233 25.3421 183.799 25.3421C185.97 25.3421 187.469 24.3948 188.102 22.658H194.022C192.878 27.3553 189.207 30 183.68 30ZM179.141 16.8158H188.457C187.983 13.9343 186.364 12.3948 183.799 12.3948C181.273 12.3948 179.655 13.9737 179.141 16.8158Z" fill="#AAAAAA"/>
<path d="M165.642 29.5264V0.473683L171.445 0V29.5264H165.642Z" fill="#AAAAAA"/>
<path d="M142.203 29.5264V0.473683L148.006 0V11.25H148.242C149.545 9 151.637 7.85527 154.598 7.85527C160.203 7.85527 163.874 12.2368 163.874 18.8684C163.874 25.5 160.203 29.9211 154.598 29.9211C151.637 29.9211 149.545 28.7764 148.242 26.4868H148.006V29.5264H142.203ZM152.98 12.6711C149.979 12.6711 148.006 15.1184 148.006 18.8684C148.006 22.6578 149.979 25.1053 152.98 25.1053C156.019 25.1053 157.952 22.6578 157.952 18.8684C157.952 15.1184 156.019 12.6711 152.98 12.6711Z" fill="#AAAAAA"/>
<path d="M127.237 29.8421C123.053 29.8421 120.329 27.2369 120.329 23.2106C120.329 19.7763 122.658 17.5263 126.764 17.0526L132.408 16.4211C133.474 16.2632 133.987 15.7894 133.987 14.9211C133.987 13.3027 132.764 12.3158 130.79 12.3158C128.816 12.3158 127.474 13.3027 127.237 14.9211H121.277C121.711 10.4606 125.382 7.73687 130.869 7.73687C136.513 7.73687 139.79 10.5395 139.79 15.3947V29.5264H133.987V26.7632H133.75C132.685 28.5789 130.04 29.8421 127.237 29.8421ZM129.132 25.3421C131.619 25.3421 133.987 23.1712 133.987 20.6448V19.8948C133.711 20.0922 133.395 20.1711 133 20.2105L128.777 20.6842C127.237 20.8422 126.369 21.6711 126.369 22.9737C126.369 24.4342 127.435 25.3421 129.132 25.3421Z" fill="#AAAAAA"/>
<path d="M106.679 29.5264L99.1397 8.21053H104.942L110.232 24.1974H110.469L115.719 8.21053H121.245L113.706 29.5264H106.679Z" fill="#AAAAAA"/>
<path d="M89.0058 30C82.5715 30 78.1506 25.4606 78.1506 18.8684C78.1506 12.2763 82.5715 7.73687 89.0058 7.73687C95.4399 7.73687 99.861 12.2763 99.861 18.8684C99.861 25.4606 95.4399 30 89.0058 30ZM89.0058 25.1842C92.1241 25.1842 94.019 22.8159 94.019 18.8684C94.019 14.9211 92.1241 12.5527 89.0058 12.5527C85.8874 12.5527 83.9926 14.9211 83.9926 18.8684C83.9926 22.8159 85.8874 25.1842 89.0058 25.1842Z" fill="#AAAAAA"/>
<path d="M64.1357 29.5264V8.21055H69.9384V10.7763H70.1752C70.8858 8.80266 72.4252 7.73687 74.6358 7.73687H77.5963L78.0699 13.7369H73.8463C71.32 13.7369 69.9384 14.8422 69.9384 16.8948V29.5264H64.1357Z" fill="#AAAAAA"/>
<path d="M40.2857 29.5264V1.65792H51.8515C58.2462 1.65792 62.3514 5.28951 62.3514 10.9737C62.3514 16.6973 58.2462 20.408 51.8515 20.408H46.3646V29.5264H40.2857ZM51.8515 15.1184C54.5356 15.1184 56.2724 13.5395 56.2724 11.0921C56.2724 8.64476 54.5356 7.06582 51.8515 7.06582H46.3646V15.1184H51.8515Z" fill="#AAAAAA"/>
</svg>
