<svg width="230" height="34" viewBox="0 0 230 34" fill="none" xmlns="http://www.w3.org/2000/svg">
<g filter="url(#filter0_i_890_13716)">
<ellipse cx="16.7766" cy="16.7766" rx="16.7766" ry="16.7766" fill="url(#paint0_radial_890_13716)"/>
</g>
<g clip-path="url(#clip0_890_13716)">
<path d="M19.7319 11.7463C19.7319 10.0461 18.3089 8.66785 16.5534 8.66785C14.798 8.66785 13.3749 10.0461 13.3749 11.7463C13.3749 13.4465 14.798 14.8248 16.5534 14.8248C18.3089 14.8248 19.7319 13.4465 19.7319 11.7463Z" fill="white"/>
<path d="M9.17312 16.9024C10.0651 15.6687 11.8208 15.3688 13.0947 16.2327L15.5587 17.9037C16.3167 18.4178 17.3116 18.4178 18.0697 17.9037L20.4415 16.2952C21.7141 15.4321 23.4681 15.7317 24.3592 16.9642C25.2503 18.1967 24.941 19.8955 23.6684 20.7586L18.3948 24.335C17.2765 25.0934 15.7864 24.954 14.8369 24.0726L9.86459 20.7006C8.60069 19.8434 8.28602 18.1627 9.1524 16.9314L9.17312 16.9024Z" fill="white"/>
</g>
<path d="M60.1014 27.1221C58.6102 27.1221 57.2308 26.8705 55.9632 26.3672C54.7143 25.8639 53.6238 25.1555 52.6918 24.2421C51.7784 23.3101 51.0607 22.2103 50.5388 20.9427C50.0355 19.6565 49.7838 18.2398 49.7838 16.6927C49.7838 14.6422 50.2219 12.8527 51.098 11.3242C51.9741 9.77698 53.1857 8.57465 54.7329 7.71718C56.2987 6.85971 58.0789 6.43098 60.0735 6.43098C62.1053 6.43098 63.8948 6.85971 65.442 7.71718C66.9891 8.57465 68.2008 9.77698 69.0769 11.3242C69.9716 12.8713 70.419 14.6701 70.419 16.7206C70.419 18.2492 70.1581 19.6565 69.6361 20.9427C69.1328 22.2103 68.4151 23.3101 67.4831 24.2421C66.5697 25.1555 65.4792 25.8639 64.2117 26.3672C62.9628 26.8705 61.5927 27.1221 60.1014 27.1221ZM60.0735 23.7109C61.2478 23.7109 62.2824 23.4126 63.1771 22.8161C64.0719 22.2196 64.7709 21.3994 65.2742 20.3556C65.7961 19.293 66.0571 18.0628 66.0571 16.6647C66.0571 15.2853 65.8055 14.083 65.3022 13.0577C64.7989 12.0325 64.0998 11.2403 63.2051 10.681C62.3103 10.1218 61.2665 9.84222 60.0735 9.84222C58.8991 9.84222 57.8645 10.1218 56.9698 10.681C56.075 11.2403 55.376 12.0325 54.8727 13.0577C54.3881 14.0643 54.1457 15.2667 54.1457 16.6647C54.1457 18.0814 54.3974 19.321 54.9007 20.3835C55.404 21.4274 56.103 22.2476 56.9977 22.8441C57.8925 23.4219 58.9177 23.7109 60.0735 23.7109Z" fill="#281744"/>
<path d="M72.0925 26.8425V12.5824H76.2028V15.9377H76.2867V26.8425H72.0925ZM76.2867 19.4049L75.9232 16.0216C76.2587 14.81 76.8086 13.8872 77.5729 13.2535C78.3371 12.6197 79.2878 12.3028 80.4249 12.3028C80.7791 12.3028 81.04 12.3401 81.2078 12.4146V16.3292C81.1146 16.2919 80.9841 16.2732 80.8164 16.2732C80.6486 16.2546 80.4435 16.2453 80.2012 16.2453C78.8591 16.2453 77.8711 16.4876 77.2373 16.9723C76.6036 17.4383 76.2867 18.2492 76.2867 19.4049Z" fill="#281744"/>
<path d="M82.176 26.8425V12.5824H86.3701V26.8425H82.176ZM82.0362 10.681V6.15137H86.5099V10.681H82.0362Z" fill="#281744"/>
<path d="M95.3078 32.8541C93.3319 32.8541 91.7195 32.4347 90.4705 31.5959C89.2403 30.757 88.5133 29.62 88.2896 28.1846H92.26C92.4092 28.5388 92.7261 28.8091 93.2107 28.9955C93.714 29.1819 94.3478 29.2751 95.1121 29.2751C96.3796 29.2751 97.3023 29.0328 97.8802 28.5481C98.4581 28.0635 98.747 27.3085 98.747 26.2833V23.1796L98.9707 23.2355C98.7843 24.2794 98.2437 25.1089 97.3489 25.7241C96.4542 26.3206 95.3451 26.6188 94.0216 26.6188C92.754 26.6188 91.6449 26.3299 90.6942 25.752C89.7622 25.1555 89.0352 24.326 88.5133 23.2635C87.9913 22.201 87.7304 20.9521 87.7304 19.5167C87.7304 18.0628 88.0007 16.7952 88.5412 15.714C89.0818 14.6329 89.8368 13.794 90.8061 13.1975C91.794 12.601 92.9404 12.3028 94.2453 12.3028C95.5874 12.3028 96.6779 12.6197 97.5167 13.2535C98.3742 13.8872 98.8775 14.754 99.0266 15.8538L98.8309 15.8818V12.5824H102.941V26.2274C102.941 28.2778 102.261 29.8903 100.9 31.0646C99.5392 32.2576 97.6752 32.8541 95.3078 32.8541ZM95.4756 23.4033C96.4635 23.4033 97.2651 23.0678 97.8802 22.3967C98.4953 21.707 98.8029 20.7284 98.8029 19.4608C98.8029 18.1932 98.486 17.2239 97.8522 16.5529C97.2371 15.8632 96.4262 15.5183 95.4196 15.5183C94.4503 15.5183 93.6488 15.8632 93.015 16.5529C92.3998 17.2426 92.0923 18.2212 92.0923 19.4888C92.0923 20.7563 92.3998 21.7256 93.015 22.3967C93.6488 23.0678 94.469 23.4033 95.4756 23.4033Z" fill="#281744"/>
<path d="M105.456 26.8425V12.5824H109.65V26.8425H105.456ZM105.316 10.681V6.15137H109.79V10.681H105.316Z" fill="#281744"/>
<path d="M112.153 26.8425V12.5824H116.263V15.9377H116.347V26.8425H112.153ZM122.079 26.8425V18.0068C122.079 17.2239 121.874 16.6367 121.464 16.2453C121.073 15.8538 120.495 15.6581 119.731 15.6581C119.078 15.6581 118.491 15.8072 117.969 16.1055C117.466 16.4037 117.065 16.8138 116.767 17.3358C116.487 17.8577 116.347 18.4728 116.347 19.1812L115.984 15.742C116.45 14.6981 117.13 13.8686 118.025 13.2535C118.938 12.6197 120.057 12.3028 121.38 12.3028C122.965 12.3028 124.176 12.7502 125.015 13.6449C125.854 14.521 126.273 15.7047 126.273 17.196V26.8425H122.079Z" fill="#281744"/>
<path d="M137.247 26.8425C137.135 26.4324 137.051 25.9944 136.995 25.5283C136.958 25.0623 136.939 24.5217 136.939 23.9066H136.827V17.168C136.827 16.5901 136.632 16.1428 136.24 15.8259C135.867 15.4903 135.308 15.3226 134.562 15.3226C133.854 15.3226 133.285 15.4437 132.857 15.6861C132.447 15.9284 132.176 16.2826 132.046 16.7486H128.047C128.234 15.4624 128.896 14.3999 130.033 13.561C131.17 12.7222 132.726 12.3028 134.702 12.3028C136.753 12.3028 138.318 12.7595 139.4 13.6729C140.481 14.5863 141.021 15.9004 141.021 17.6154V23.9066C141.021 24.3726 141.049 24.848 141.105 25.3326C141.18 25.7986 141.292 26.3019 141.441 26.8425H137.247ZM132.27 27.1221C130.853 27.1221 129.725 26.7679 128.886 26.0596C128.047 25.3326 127.628 24.3726 127.628 23.1796C127.628 21.8561 128.122 20.7936 129.11 19.9921C130.117 19.1719 131.515 18.6406 133.304 18.3983L137.47 17.8111V20.2437L134.003 20.775C133.258 20.8868 132.708 21.0919 132.353 21.3901C131.999 21.6884 131.822 22.0985 131.822 22.6204C131.822 23.0864 131.99 23.4406 132.326 23.6829C132.661 23.9252 133.108 24.0464 133.668 24.0464C134.544 24.0464 135.289 23.8134 135.905 23.3474C136.52 22.8627 136.827 22.3035 136.827 21.6697L137.219 23.9066C136.809 24.9691 136.184 25.7707 135.345 26.3112C134.506 26.8518 133.481 27.1221 132.27 27.1221Z" fill="#281744"/>
<path d="M143.406 26.8425V6.71059H147.6V26.8425H143.406Z" fill="#281744"/>
<path d="M156.898 26.8425L149.321 6.71059H152.452L159.107 25.053H158.352L165.007 6.71059H167.971L160.365 26.8425H156.898Z" fill="#281744"/>
<path d="M174.267 27.1221C172.813 27.1221 171.536 26.8052 170.436 26.1714C169.337 25.519 168.479 24.6336 167.864 23.5151C167.249 22.3781 166.941 21.0919 166.941 19.6565C166.941 18.2026 167.249 16.9257 167.864 15.8259C168.498 14.7261 169.355 13.8686 170.436 13.2535C171.536 12.6197 172.813 12.3028 174.267 12.3028C175.74 12.3028 177.026 12.6197 178.126 13.2535C179.225 13.8686 180.074 14.7261 180.67 15.8259C181.285 16.9257 181.593 18.2026 181.593 19.6565C181.593 21.0919 181.285 22.3781 180.67 23.5151C180.074 24.6336 179.225 25.519 178.126 26.1714C177.026 26.8052 175.74 27.1221 174.267 27.1221ZM174.267 24.7454C175.143 24.7454 175.898 24.5311 176.532 24.1023C177.184 23.6736 177.697 23.0771 178.07 22.3128C178.442 21.5486 178.629 20.6538 178.629 19.6286C178.629 18.1 178.219 16.8977 177.399 16.0216C176.597 15.1268 175.553 14.6795 174.267 14.6795C172.999 14.6795 171.956 15.1268 171.135 16.0216C170.334 16.9164 169.933 18.1187 169.933 19.6286C169.933 20.6538 170.11 21.5486 170.464 22.3128C170.837 23.0771 171.35 23.6736 172.002 24.1023C172.673 24.5311 173.428 24.7454 174.267 24.7454Z" fill="#281744"/>
<path d="M183.713 26.8425V12.5824H186.621V26.8425H183.713ZM183.574 9.7863V6.51486H186.789V9.7863H183.574Z" fill="#281744"/>
<path d="M195.738 27.1221C194.377 27.1221 193.166 26.8052 192.103 26.1714C191.041 25.519 190.202 24.6336 189.587 23.5151C188.99 22.3967 188.692 21.1198 188.692 19.6845C188.692 18.2492 188.99 16.9816 189.587 15.8818C190.202 14.7634 191.041 13.8872 192.103 13.2535C193.166 12.6197 194.368 12.3028 195.71 12.3028C196.847 12.3028 197.863 12.5172 198.758 12.9459C199.652 13.3746 200.389 13.9711 200.967 14.7354C201.545 15.4997 201.917 16.4037 202.085 17.4476H199.345C199.159 16.6088 198.748 15.9377 198.115 15.4344C197.499 14.9311 196.717 14.6795 195.766 14.6795C194.946 14.6795 194.228 14.8845 193.613 15.2946C192.998 15.7047 192.522 16.2826 192.187 17.0282C191.851 17.7738 191.684 18.6593 191.684 19.6845C191.684 20.6911 191.851 21.5765 192.187 22.3408C192.522 23.1051 192.998 23.7016 193.613 24.1303C194.228 24.5404 194.955 24.7454 195.794 24.7454C196.707 24.7454 197.481 24.5031 198.115 24.0184C198.767 23.5151 199.186 22.8441 199.373 22.0053H202.113C201.927 23.0305 201.535 23.9252 200.939 24.6895C200.361 25.4538 199.625 26.0503 198.73 26.479C197.835 26.9077 196.838 27.1221 195.738 27.1221Z" fill="#281744"/>
<path d="M210.25 27.1221C208.815 27.1221 207.547 26.8052 206.447 26.1714C205.366 25.5377 204.518 24.6615 203.903 23.5431C203.288 22.4247 202.98 21.1385 202.98 19.6845C202.98 18.2119 203.279 16.9257 203.875 15.8259C204.49 14.7074 205.348 13.8406 206.447 13.2255C207.547 12.6104 208.805 12.3028 210.222 12.3028C211.602 12.3028 212.795 12.601 213.801 13.1975C214.826 13.7754 215.609 14.5863 216.15 15.6301C216.709 16.674 216.989 17.9136 216.989 19.349C216.989 19.5726 216.979 19.787 216.961 19.9921C216.961 20.1785 216.942 20.3742 216.905 20.5792H204.938V18.3983H214.864L214.137 19.2651C214.137 17.7365 213.792 16.5715 213.102 15.7699C212.412 14.9684 211.452 14.5676 210.222 14.5676C208.899 14.5676 207.846 15.0243 207.063 15.9377C206.298 16.8325 205.916 18.0814 205.916 19.6845C205.916 21.3062 206.298 22.5738 207.063 23.4872C207.846 24.4006 208.927 24.8573 210.306 24.8573C211.145 24.8573 211.872 24.6895 212.487 24.354C213.102 23.9998 213.559 23.4872 213.857 22.8161H216.597C216.131 24.1582 215.339 25.2114 214.221 25.9757C213.121 26.74 211.797 27.1221 210.25 27.1221Z" fill="#281744"/>
<path d="M224.324 27.1221C222.46 27.1221 220.978 26.712 219.878 25.8918C218.778 25.0716 218.154 23.9159 218.005 22.4247H220.689C220.819 23.2449 221.192 23.8786 221.807 24.326C222.441 24.7547 223.299 24.9691 224.38 24.9691C225.331 24.9691 226.057 24.8014 226.561 24.4658C227.064 24.1303 227.316 23.655 227.316 23.0398C227.316 22.5924 227.167 22.2196 226.868 21.9214C226.589 21.6045 226.03 21.3435 225.191 21.1385L222.898 20.6072C221.463 20.253 220.391 19.7311 219.682 19.0414C218.993 18.333 218.648 17.4662 218.648 16.441C218.648 15.1548 219.123 14.1482 220.074 13.4212C221.043 12.6756 222.367 12.3028 224.044 12.3028C225.703 12.3028 227.036 12.6756 228.043 13.4212C229.068 14.1669 229.646 15.2107 229.776 16.5529H227.092C226.98 15.8818 226.654 15.3692 226.113 15.015C225.591 14.6422 224.874 14.4558 223.96 14.4558C223.103 14.4558 222.441 14.6142 221.975 14.9311C221.528 15.2294 221.304 15.6488 221.304 16.1894C221.304 16.6367 221.472 17.0096 221.807 17.3078C222.162 17.6061 222.739 17.8577 223.541 18.0628L225.89 18.6499C227.25 18.9855 228.276 19.5354 228.965 20.2996C229.655 21.0453 230 21.9493 230 23.0118C230 24.2981 229.497 25.3046 228.49 26.0316C227.502 26.7586 226.113 27.1221 224.324 27.1221Z" fill="#281744"/>
<defs>
<filter id="filter0_i_890_13716" x="0" y="0" width="33.5532" height="33.5532" filterUnits="userSpaceOnUse" color-interpolation-filters="sRGB">
<feFlood flood-opacity="0" result="BackgroundImageFix"/>
<feBlend mode="normal" in="SourceGraphic" in2="BackgroundImageFix" result="shape"/>
<feColorMatrix in="SourceAlpha" type="matrix" values="0 0 0 0 0 0 0 0 0 0 0 0 0 0 0 0 0 0 127 0" result="hardAlpha"/>
<feOffset/>
<feGaussianBlur stdDeviation="9.07747"/>
<feComposite in2="hardAlpha" operator="arithmetic" k2="-1" k3="1"/>
<feColorMatrix type="matrix" values="0 0 0 0 1 0 0 0 0 1 0 0 0 0 1 0 0 0 1 0"/>
<feBlend mode="overlay" in2="shape" result="effect1_innerShadow_890_13716"/>
</filter>
<radialGradient id="paint0_radial_890_13716" cx="0" cy="0" r="1" gradientUnits="userSpaceOnUse" gradientTransform="translate(16.7766 7.24444) rotate(90) scale(26.3088 26.3087)">
<stop stop-color="#8A38F5"/>
<stop offset="0.754808" stop-color="#3212A8"/>
<stop offset="1" stop-color="#5E25CF"/>
</radialGradient>
<clipPath id="clip0_890_13716">
<rect width="16.198" height="16.1674" fill="white" transform="translate(8.66791 8.66785)"/>
</clipPath>
</defs>
</svg>
