<svg width="229" height="31" viewBox="0 0 229 31" fill="none" xmlns="http://www.w3.org/2000/svg">
<g filter="url(#filter0_i_5_28)">
<path d="M15 30C23.2843 30 30 23.2843 30 15C30 6.71573 23.2843 0 15 0C6.71573 0 0 6.71573 0 15C0 23.2843 6.71573 30 15 30Z" fill="url(#paint0_radial_5_28)"/>
</g>
<mask id="mask0_5_28" style="mask-type:luminance" maskUnits="userSpaceOnUse" x="7" y="7" width="16" height="16">
<path d="M22.2327 7.74995H7.75V22.2053H22.2327V7.74995Z" fill="white"/>
</mask>
<g mask="url(#mask0_5_28)">
<path d="M17.6423 10.5024C17.6423 8.98224 16.37 7.74995 14.8004 7.74995C13.2309 7.74995 11.9585 8.98224 11.9585 10.5024C11.9585 12.0225 13.2309 13.2549 14.8004 13.2549C16.37 13.2549 17.6423 12.0225 17.6423 10.5024Z" fill="white"/>
<path d="M8.20172 15.1125C8.99924 14.0094 10.569 13.7413 11.708 14.5137L13.9111 16.0077C14.5888 16.4674 15.4784 16.4674 16.1562 16.0077L18.2768 14.5696C19.4146 13.7979 20.9829 14.0658 21.7796 15.1677C22.5764 16.2697 22.2998 17.7886 21.162 18.5603L16.4468 21.758C15.447 22.4361 14.1147 22.3114 13.2657 21.5234L8.81996 18.5085C7.68991 17.742 7.40856 16.2393 8.18319 15.1384L8.20172 15.1125Z" fill="white"/>
</g>
<path d="M50.8188 24.9895C49.2552 24.9895 47.8088 24.7257 46.4796 24.198C45.17 23.6702 44.0266 22.9274 43.0493 21.9696C42.0915 20.9923 41.3389 19.8391 40.7917 18.5099C40.2639 17.1612 40 15.6757 40 14.0535C40 11.9033 40.4594 10.0269 41.378 8.42415C42.2967 6.80176 43.5672 5.54102 45.1895 4.64189C46.8314 3.74276 48.6981 3.29321 50.7896 3.29321C52.9201 3.29321 54.7965 3.74276 56.4189 4.64189C58.0412 5.54102 59.3117 6.80176 60.2304 8.42415C61.1686 10.0464 61.6377 11.9326 61.6377 14.0827C61.6377 15.6856 61.3641 17.1612 60.8168 18.5099C60.289 19.8391 59.5364 20.9923 58.5592 21.9696C57.6014 22.9274 56.4579 23.6702 55.1288 24.198C53.8193 24.7257 52.3826 24.9895 50.8188 24.9895ZM50.7896 21.4126C52.0209 21.4126 53.1058 21.0998 54.044 20.4743C54.9822 19.8489 55.7152 18.9888 56.243 17.8943C56.7902 16.7801 57.0639 15.4901 57.0639 14.0241C57.0639 12.5777 56.8001 11.317 56.2723 10.2419C55.7446 9.16686 55.0115 8.33617 54.0733 7.7497C53.1351 7.16333 52.0406 6.87017 50.7896 6.87017C49.5581 6.87017 48.4733 7.16333 47.5351 7.7497C46.5968 8.33617 45.8639 9.16686 45.3361 10.2419C44.828 11.2974 44.5738 12.5582 44.5738 14.0241C44.5738 15.5096 44.8377 16.8094 45.3655 17.9236C45.8932 19.0182 46.6262 19.8782 47.5644 20.5037C48.5026 21.1096 49.5776 21.4126 50.7896 21.4126Z" fill="#AAAAAA"/>
<path d="M63.3925 24.6963V9.74346H67.7025V13.2618H67.7904V24.6963H63.3925ZM67.7904 16.8974L67.4093 13.3497C67.7611 12.0793 68.3377 11.1116 69.1391 10.4472C69.9405 9.78257 70.9373 9.45028 72.1297 9.45028C72.5011 9.45028 72.7747 9.48939 72.9506 9.56751V13.6723C72.8529 13.6332 72.7161 13.6136 72.5402 13.6136C72.3643 13.5941 72.1492 13.5843 71.8951 13.5843C70.4878 13.5843 69.4518 13.8384 68.7872 14.3466C68.1227 14.8353 67.7904 15.6856 67.7904 16.8974Z" fill="#AAAAAA"/>
<path d="M73.9659 24.6963V9.74346H78.3637V24.6963H73.9659ZM73.8193 7.74969V3H78.5103V7.74969H73.8193Z" fill="#AAAAAA"/>
<path d="M87.7357 31C85.6638 31 83.973 30.5602 82.6634 29.6807C81.3734 28.801 80.6111 27.6088 80.3765 26.1036H84.5398C84.6963 26.4751 85.0285 26.7585 85.5367 26.9539C86.0644 27.1494 86.729 27.2471 87.5305 27.2471C88.8595 27.2471 89.8271 26.9931 90.433 26.4848C91.039 25.9767 91.342 25.185 91.342 24.11V20.8555L91.5765 20.9141C91.3811 22.0087 90.8142 22.8785 89.8759 23.5236C88.9378 24.1491 87.7748 24.4618 86.387 24.4618C85.0578 24.4618 83.8948 24.1588 82.8979 23.5529C81.9207 22.9274 81.1583 22.0576 80.6111 20.9435C80.0637 19.8293 79.7901 18.5198 79.7901 17.0146C79.7901 15.4901 80.0736 14.1609 80.6403 13.0272C81.2072 11.8936 81.9989 11.0139 83.0153 10.3884C84.0512 9.76296 85.2533 9.45028 86.6216 9.45028C88.0289 9.45028 89.1723 9.78257 90.0519 10.4472C90.951 11.1116 91.4788 12.0206 91.6351 13.1738L91.4299 13.2031V9.74346H95.7397V24.0514C95.7397 26.2014 95.0267 27.8922 93.5996 29.1236C92.1726 30.3745 90.2181 31 87.7357 31ZM87.9116 21.0901C88.9475 21.0901 89.7881 20.7383 90.433 20.0346C91.078 19.3113 91.4006 18.2852 91.4006 16.956C91.4006 15.6268 91.0683 14.6105 90.4037 13.9069C89.7587 13.1836 88.9084 12.822 87.8529 12.822C86.8365 12.822 85.9961 13.1836 85.3315 13.9069C84.6864 14.6301 84.364 15.6562 84.364 16.9854C84.364 18.3145 84.6864 19.3309 85.3315 20.0346C85.9961 20.7383 86.8561 21.0901 87.9116 21.0901Z" fill="#AAAAAA"/>
<path d="M98.3769 24.6963V9.74346H102.775V24.6963H98.3769ZM98.2301 7.74969V3H102.921V7.74969H98.2301Z" fill="#AAAAAA"/>
<path d="M105.399 24.6963V9.74346H109.709V13.2618H109.797V24.6963H105.399ZM115.807 24.6963V15.4314C115.807 14.6105 115.593 13.9947 115.163 13.5843C114.753 13.1738 114.147 12.9686 113.345 12.9686C112.661 12.9686 112.045 13.1249 111.498 13.4377C110.97 13.7504 110.55 14.1804 110.237 14.7278C109.944 15.275 109.797 15.92 109.797 16.6628L109.416 13.0566C109.905 11.9619 110.618 11.0921 111.557 10.4472C112.514 9.78257 113.687 9.45028 115.075 9.45028C116.737 9.45028 118.006 9.91941 118.886 10.8576C119.766 11.7762 120.205 13.0174 120.205 14.5812V24.6963H115.807Z" fill="#AAAAAA"/>
<path d="M131.712 24.6963C131.595 24.2663 131.507 23.807 131.448 23.3183C131.409 22.8297 131.389 22.2628 131.389 21.6178H131.272V14.5518C131.272 13.9459 131.067 13.4768 130.656 13.1445C130.265 12.7926 129.679 12.6168 128.897 12.6168C128.154 12.6168 127.558 12.7438 127.109 12.9979C126.679 13.252 126.395 13.6234 126.259 14.1121H122.065C122.261 12.7634 122.956 11.6493 124.148 10.7696C125.34 9.89005 126.972 9.45028 129.044 9.45028C131.194 9.45028 132.835 9.92916 133.97 10.8869C135.103 11.8447 135.67 13.2227 135.67 15.021V21.6178C135.67 22.1065 135.699 22.6049 135.758 23.1131C135.836 23.6017 135.954 24.1295 136.11 24.6963H131.712ZM126.494 24.9895C125.008 24.9895 123.825 24.6181 122.945 23.8754C122.065 23.1131 121.626 22.1064 121.626 20.8555C121.626 19.4677 122.144 18.3536 123.18 17.5131C124.236 16.6531 125.702 16.096 127.578 15.8419L131.946 15.2262V17.777L128.311 18.3341C127.53 18.4513 126.953 18.6664 126.581 18.9791C126.209 19.2918 126.024 19.7219 126.024 20.2691C126.024 20.7578 126.2 21.1292 126.552 21.3832C126.904 21.6373 127.372 21.7644 127.959 21.7644C128.878 21.7644 129.659 21.5201 130.305 21.0314C130.95 20.5232 131.272 19.9368 131.272 19.2722L131.683 21.6178C131.253 22.7319 130.598 23.5725 129.718 24.1392C128.838 24.7061 127.763 24.9895 126.494 24.9895Z" fill="#AAAAAA"/>
<path d="M138.171 24.6963V3.58639H142.568V24.6963H138.171Z" fill="#AAAAAA"/>
<path d="M152.318 24.6963L144.373 3.58639H147.656L154.634 22.8199H153.843L160.821 3.58639H163.929L155.953 24.6963H152.318Z" fill="#AAAAAA"/>
<path d="M170.531 24.9895C169.006 24.9895 167.667 24.6572 166.514 23.9926C165.361 23.3085 164.462 22.3801 163.817 21.2073C163.172 20.0151 162.849 18.6664 162.849 17.1612C162.849 15.6367 163.172 14.2978 163.817 13.1445C164.482 11.9913 165.38 11.0921 166.514 10.4472C167.667 9.78257 169.006 9.45028 170.531 9.45028C172.075 9.45028 173.424 9.78257 174.577 10.4472C175.73 11.0921 176.62 11.9913 177.245 13.1445C177.89 14.2978 178.213 15.6367 178.213 17.1612C178.213 18.6664 177.89 20.0151 177.245 21.2073C176.62 22.3801 175.73 23.3085 174.577 23.9926C173.424 24.6572 172.075 24.9895 170.531 24.9895ZM170.531 22.4974C171.449 22.4974 172.241 22.2727 172.906 21.823C173.59 21.3735 174.127 20.748 174.519 19.9466C174.909 19.1453 175.105 18.207 175.105 17.132C175.105 15.5291 174.675 14.2684 173.815 13.3497C172.974 12.4115 171.879 11.9424 170.531 11.9424C169.201 11.9424 168.108 12.4115 167.247 13.3497C166.407 14.288 165.986 15.5487 165.986 17.132C165.986 18.207 166.172 19.1453 166.543 19.9466C166.934 20.748 167.472 21.3735 168.156 21.823C168.859 22.2727 169.651 22.4974 170.531 22.4974Z" fill="#AAAAAA"/>
<path d="M180.436 24.6963V9.74346H183.485V24.6963H180.436ZM180.29 6.81152V3.38115H183.661V6.81152H180.29Z" fill="#AAAAAA"/>
<path d="M193.045 24.9895C191.618 24.9895 190.348 24.6572 189.233 23.9926C188.12 23.3085 187.24 22.3801 186.595 21.2073C185.969 20.0346 185.657 18.6956 185.657 17.1906C185.657 15.6856 185.969 14.3564 186.595 13.2031C187.24 12.0304 188.12 11.1116 189.233 10.4472C190.348 9.78257 191.608 9.45028 193.016 9.45028C194.208 9.45028 195.273 9.67509 196.212 10.1246C197.149 10.5741 197.922 11.1996 198.528 12.0011C199.134 12.8025 199.524 13.7504 199.7 14.845H196.827C196.632 13.9655 196.201 13.2618 195.537 12.734C194.891 12.2063 194.072 11.9424 193.074 11.9424C192.214 11.9424 191.462 12.1574 190.817 12.5874C190.172 13.0174 189.673 13.6234 189.321 14.4052C188.969 15.1871 188.794 16.1156 188.794 17.1906C188.794 18.2461 188.969 19.1745 189.321 19.9759C189.673 20.7774 190.172 21.4029 190.817 21.8524C191.462 22.2824 192.224 22.4974 193.104 22.4974C194.061 22.4974 194.873 22.2433 195.537 21.735C196.221 21.2073 196.66 20.5037 196.857 19.6241H199.73C199.535 20.6991 199.124 21.6373 198.499 22.4387C197.893 23.2402 197.121 23.8657 196.182 24.3152C195.244 24.7647 194.198 24.9895 193.045 24.9895Z" fill="#AAAAAA"/>
<path d="M208.262 24.9895C206.757 24.9895 205.428 24.6572 204.274 23.9926C203.141 23.3282 202.252 22.4094 201.607 21.2367C200.962 20.0639 200.639 18.7152 200.639 17.1906C200.639 15.6465 200.952 14.2978 201.577 13.1445C202.222 11.9717 203.122 11.0628 204.274 10.4178C205.428 9.77282 206.747 9.45028 208.233 9.45028C209.68 9.45028 210.931 9.76296 211.985 10.3884C213.06 10.9944 213.881 11.8447 214.449 12.9392C215.035 14.0338 215.328 15.3337 215.328 16.8388C215.328 17.0733 215.318 17.2981 215.299 17.5131C215.299 17.7086 215.279 17.9138 215.24 18.1288H202.692V15.8419H213.1L212.338 16.7508C212.338 15.148 211.976 13.9264 211.253 13.0858C210.529 12.2454 209.522 11.8251 208.233 11.8251C206.845 11.8251 205.741 12.304 204.92 13.2618C204.118 14.2 203.717 15.5096 203.717 17.1906C203.717 18.8911 204.118 20.2203 204.92 21.178C205.741 22.1358 206.875 22.6147 208.321 22.6147C209.2 22.6147 209.963 22.4387 210.608 22.0869C211.253 21.7155 211.732 21.178 212.044 20.4743H214.917C214.429 21.8816 213.598 22.986 212.426 23.7874C211.272 24.5889 209.884 24.9895 208.262 24.9895Z" fill="#AAAAAA"/>
<path d="M223.02 24.9895C221.065 24.9895 219.511 24.5595 218.358 23.6995C217.204 22.8394 216.55 21.6276 216.394 20.0639H219.208C219.344 20.924 219.736 21.5885 220.38 22.0576C221.045 22.5071 221.945 22.7319 223.078 22.7319C224.076 22.7319 224.837 22.5561 225.365 22.2042C225.893 21.8524 226.157 21.354 226.157 20.7089C226.157 20.2398 226.001 19.8489 225.687 19.5362C225.395 19.2039 224.809 18.9302 223.929 18.7152L221.524 18.1581C220.02 17.7867 218.896 17.2395 218.152 16.5163C217.43 15.7734 217.068 14.8645 217.068 13.7895C217.068 12.4408 217.566 11.3853 218.563 10.623C219.579 9.84119 220.968 9.45028 222.726 9.45028C224.466 9.45028 225.863 9.84119 226.919 10.623C227.994 11.4049 228.6 12.4994 228.737 13.9069H225.922C225.805 13.2032 225.463 12.6656 224.896 12.2942C224.348 11.9033 223.596 11.7079 222.638 11.7079C221.739 11.7079 221.045 11.874 220.557 12.2063C220.088 12.5191 219.853 12.9588 219.853 13.5257C219.853 13.9947 220.029 14.3857 220.38 14.6984C220.753 15.0112 221.358 15.275 222.199 15.4901L224.662 16.1057C226.088 16.4576 227.164 17.0342 227.886 17.8356C228.61 18.6175 228.971 19.5654 228.971 20.6795C228.971 22.0283 228.444 23.0837 227.388 23.846C226.352 24.6084 224.896 24.9895 223.02 24.9895Z" fill="#AAAAAA"/>
<defs>
<filter id="filter0_i_5_28" x="0" y="0" width="30" height="30" filterUnits="userSpaceOnUse" color-interpolation-filters="sRGB">
<feFlood flood-opacity="0" result="BackgroundImageFix"/>
<feBlend mode="normal" in="SourceGraphic" in2="BackgroundImageFix" result="shape"/>
<feColorMatrix in="SourceAlpha" type="matrix" values="0 0 0 0 0 0 0 0 0 0 0 0 0 0 0 0 0 0 127 0" result="hardAlpha"/>
<feOffset/>
<feGaussianBlur stdDeviation="9.07747"/>
<feComposite in2="hardAlpha" operator="arithmetic" k2="-1" k3="1"/>
<feColorMatrix type="matrix" values="0 0 0 0 1 0 0 0 0 1 0 0 0 0 1 0 0 0 1 0"/>
<feBlend mode="overlay" in2="shape" result="effect1_innerShadow_5_28"/>
</filter>
<radialGradient id="paint0_radial_5_28" cx="0" cy="0" r="1" gradientUnits="userSpaceOnUse" gradientTransform="translate(15 6.47727) rotate(90) scale(23.5228 23.5227)">
<stop offset="0.9998" stop-color="#AAAAAA"/>
<stop offset="0.9999" stop-color="#AAAAAA"/>
<stop offset="1" stop-color="#AAAAAA"/>
</radialGradient>
</defs>
</svg>
