<svg width="185" height="30" viewBox="0 0 185 30" fill="none" xmlns="http://www.w3.org/2000/svg">
<path fill-rule="evenodd" clip-rule="evenodd" d="M11.6293 0L0 29.9572H3.92859L13.7498 4.11497L23.5709 29.9572H23.6438L23.5056 29.5938L23.6505 29.9572H27.7011L16.1154 0H11.6293ZM18.1974 15.6261L19.2849 18.4879H19.295L18.1974 15.6261Z" fill="#AAAAAA"/>
<path fill-rule="evenodd" clip-rule="evenodd" d="M168.428 0L156.8 29.9572H160.754L170.574 4.11497L180.396 29.9572H180.443L180.305 29.5936L180.45 29.9572H184.5L172.914 0H168.428ZM176.084 18.4879H176.094L174.996 15.6268L176.084 18.4879Z" fill="#AAAAAA"/>
<path d="M28.3344 0H51.8978V3.42369H42.2874C42.1353 3.96629 42.0548 4.57398 42.0548 5.23254V24.7246C42.0548 27.2011 43.1954 28.9986 44.9825 29.2383V29.9572H35.2865V29.2383C37.0736 28.9587 38.1762 27.2011 38.1762 24.7246V5.23254C38.1762 4.57398 38.0984 3.96629 37.9502 3.42369H28.3344V0Z" fill="#AAAAAA"/>
<path d="M114.045 0V3.42369H98.658C98.506 3.96629 98.4253 4.57398 98.4253 5.23254V13.01H111.431V16.4337H98.4253V24.7246C98.4253 25.3807 98.5054 25.9891 98.6563 26.5335H114.611V29.9572H91.6572V29.2383C93.4443 28.9587 94.5469 27.2011 94.5469 24.7246V5.23254C94.5469 2.75607 93.4443 0.998578 91.6572 0.718978V4.47035e-06L114.045 0Z" fill="#AAAAAA"/>
<path d="M121.811 29.9572V29.2383C123.598 28.9587 124.701 27.2011 124.701 24.7246V5.23254C124.701 2.75607 123.598 0.998574 121.811 0.718973V0H131.507V0.718973C130.821 0.826313 130.23 1.15148 129.762 1.65152L144.803 22.8759V5.23254C144.803 2.75607 143.7 0.998574 141.913 0.718973V0H151.61V0.718973C149.822 0.998574 148.681 2.75607 148.681 5.23254V24.7246C148.681 27.2011 149.822 28.9986 151.61 29.2383V29.9572H141.913V29.2383C142.703 29.1147 143.36 28.702 143.846 28.066L128.81 6.84736V26.5327C129.228 28.0438 130.193 29.062 131.507 29.2383V29.9572H121.811Z" fill="#AAAAAA"/>
<path d="M61.5536 0H57.7643V0.0427995H54.8026V0.761773C56.5897 1.04137 57.6925 2.79887 57.6925 5.27534V24.7675C57.6925 27.2439 56.5897 29.0014 54.8026 29.281V30H64.4987V29.281C62.7116 29.0413 61.5709 27.2439 61.5709 24.7675V16.4764H77.3207V26.2116C76.972 27.9106 75.9857 29.0595 74.57 29.281V30H84.266V29.281C82.4789 29.0413 81.3382 27.2439 81.3382 24.7675V5.27534C81.3382 2.79887 82.4789 1.04137 84.266 0.761773V0.0427995H81.11V0H77.3207V0.0427995H74.57V0.761773C75.9857 0.983263 76.972 2.13219 77.3207 3.83127V13.0528H61.5709V5.27534C61.5709 2.79887 62.7116 1.04137 64.4987 0.761773V0.0427995H61.5536V0Z" fill="#AAAAAA"/>
</svg>
