<svg width="175" height="30" viewBox="0 0 175 30" fill="none" xmlns="http://www.w3.org/2000/svg">
<path d="M7.41361 2.26178C5.15183 3.54973 3.32984 5.34031 2.01047 7.53926C0.675393 9.75392 0 12.2042 0 14.8115C0 17.4188 0.675393 19.8691 1.99476 22.0838C3.32984 24.2984 5.13613 26.0733 7.39791 27.3613C9.65969 28.6492 12.1728 29.3089 14.8901 29.3089H25.8534V11.6387H13.1309V17.7801H19.1309V22.7749H15.1099C13.6806 22.7749 12.3456 22.4136 11.1518 21.6911C9.95812 20.9686 8.98429 19.9948 8.27749 18.801C7.57068 17.5916 7.22513 16.2565 7.22513 14.8272C7.22513 13.3979 7.58639 12.0471 8.27749 10.8534C8.98429 9.64398 9.94241 8.67015 11.1518 7.96335C12.3456 7.24083 13.6806 6.87958 15.1099 6.87958H25.8691V0.314133H14.9058C12.1885 0.314133 9.67539 0.973819 7.41361 2.26178Z" fill="#AAAAAA"/>
<path d="M42.0314 0.0314178C35.3246 0.0314178 29.8744 5.49739 29.8744 12.2199V29.3089H36.4712V20.733H47.5916V29.3089H54.1885V12.2199C54.1885 5.49739 48.7382 0.0314178 42.0314 0.0314178ZM47.5916 14.6073H36.4712V12.2042C36.4712 9.12566 38.9686 6.62828 42.0314 6.62828C45.0943 6.62828 47.5916 9.12566 47.5916 12.2042V14.6073Z" fill="#AAAAAA"/>
<path d="M90.534 0C85.4921 0 81.3927 4.11518 81.3927 9.17278V20.8272C81.3927 22.1937 80.2932 23.2932 78.9267 23.2932C77.5602 23.2932 76.4607 22.1937 76.4607 20.8272V9.18848C76.4607 4.13089 72.3613 0.0157068 67.3194 0.0157068C62.2775 0.0157068 58.178 4.13089 58.178 9.18848V29.3246H64.8691V9.18848C64.8691 7.82199 65.9686 6.72251 67.3351 6.72251C68.7016 6.72251 69.801 7.82199 69.801 9.18848V20.8272C69.801 25.8848 73.9005 30 78.9424 30C83.9843 30 88.0838 25.8848 88.0838 20.8272V9.17278C88.0838 7.80628 89.1832 6.70681 90.5497 6.70681C91.9162 6.70681 93.0157 7.80628 93.0157 9.17278V29.3246H99.7068V9.17278C99.7068 4.11518 95.6073 0 90.5654 0H90.534Z" fill="#AAAAAA"/>
<path d="M162.267 0.0471191C155.56 0.0471191 150.11 5.51309 150.11 12.2356V29.3246H156.707V20.7487H167.827V29.3246H174.424V12.2356C174.424 5.51309 168.974 0.0471191 162.267 0.0471191ZM167.827 14.6387H156.707V12.2356C156.707 9.15707 159.204 6.65969 162.267 6.65969C165.33 6.65969 167.827 9.15707 167.827 12.2356V14.6387Z" fill="#AAAAAA"/>
<path d="M136.963 0C131.921 0 127.822 4.11518 127.822 9.17278V20.8272C127.822 22.1937 126.723 23.2932 125.356 23.2932C123.99 23.2932 122.89 22.1937 122.89 20.8272V9.17278C122.89 4.11518 118.791 0 113.749 0C108.707 0 104.607 4.11518 104.607 9.17278V29.3246H111.298V9.17278C111.298 7.80628 112.398 6.70681 113.764 6.70681C115.131 6.70681 116.23 7.80628 116.23 9.17278V20.8272C116.23 25.8848 120.33 30 125.372 30C130.414 30 134.513 25.8848 134.513 20.8272V9.17278C134.513 7.80628 135.613 6.70681 136.979 6.70681C138.346 6.70681 139.445 7.80628 139.445 9.17278V29.3246H146.136V9.17278C146.136 4.11518 142.037 0 136.995 0H136.963Z" fill="#AAAAAA"/>
</svg>
