<svg width="1391" height="216" viewBox="0 0 1391 216" fill="none" xmlns="http://www.w3.org/2000/svg">
<g opacity="0.08">
<path d="M0 49.055C0 29.1424 16.1424 13 36.055 13H163.374C183.287 13 199.429 29.1424 199.429 49.055V176.374C199.429 196.287 183.287 212.429 163.374 212.429H130.784C125.811 212.429 121.779 208.398 121.779 203.424V108.659C121.779 98.7128 113.716 90.6497 103.77 90.6497H9.00473C4.03156 90.6497 0 86.6181 0 81.645L0 49.055Z" fill="#0B0605"/>
<path d="M77.6497 152.789C77.6497 142.843 69.5866 134.78 59.6402 134.78H9.00473C4.03156 134.78 0 138.811 0 143.784L0 176.374C0 196.287 16.1424 212.429 36.055 212.429H68.6449C73.6181 212.429 77.6497 208.398 77.6497 203.424V152.789Z" fill="#0B0605"/>
<path d="M1314.65 215.39C1269.45 215.39 1239.5 183.465 1239.5 135.718C1239.5 87.9717 1269.45 56.0464 1314.65 56.0464C1366.07 56.0464 1396.3 93.9047 1388.96 149.28H1282.16C1285.55 170.186 1297.14 182.052 1315.5 182.052C1331.04 182.052 1341.77 175.272 1346.3 162.841H1388.67C1380.48 196.461 1354.21 215.39 1314.65 215.39ZM1282.16 121.027H1348.84C1345.45 100.403 1333.86 89.3843 1315.5 89.3843C1297.42 89.3843 1285.84 100.685 1282.16 121.027Z" fill="#0B0605"/>
<path d="M1185.55 212V4.06167L1227.08 0.671387V212H1185.55Z" fill="#0B0605"/>
<path d="M1017.79 212V4.06167L1059.32 0.671387V81.1909H1061.01C1070.34 65.087 1085.31 56.8938 1106.5 56.8938C1146.62 56.8938 1172.89 88.254 1172.89 135.718C1172.89 183.182 1146.62 214.825 1106.5 214.825C1085.31 214.825 1070.34 206.632 1061.01 190.245H1059.32V212H1017.79ZM1094.92 91.3618C1073.44 91.3618 1059.32 108.878 1059.32 135.718C1059.32 162.84 1073.44 180.357 1094.92 180.357C1116.67 180.357 1130.51 162.84 1130.51 135.718C1130.51 108.878 1116.67 91.3618 1094.92 91.3618Z" fill="#0B0605"/>
<path d="M910.673 214.26C880.726 214.26 861.231 195.614 861.231 166.796C861.231 142.216 877.9 126.112 907.283 122.722L947.684 118.202C955.312 117.072 958.985 113.681 958.985 107.466C958.985 95.8824 950.227 88.8192 936.1 88.8192C921.974 88.8192 912.368 95.8824 910.673 107.466H868.012C871.12 75.5406 897.395 56.0464 936.665 56.0464C977.066 56.0464 1000.52 76.1056 1000.52 110.856V212H958.985V192.223H957.29C949.662 205.219 930.732 214.26 910.673 214.26ZM924.234 182.052C942.033 182.052 958.985 166.514 958.985 148.432V143.064C957.007 144.477 954.747 145.042 951.922 145.324L921.692 148.714C910.673 149.845 904.458 155.778 904.458 165.101C904.458 175.554 912.086 182.052 924.234 182.052Z" fill="#0B0605"/>
<path d="M763.533 212L709.571 59.4365H751.102L788.961 173.859H790.656L828.232 59.4365H867.785L813.823 212H763.533Z" fill="#0B0605"/>
<path d="M637.04 215.39C590.988 215.39 559.346 182.9 559.346 135.718C559.346 88.5367 590.988 56.0464 637.04 56.0464C683.091 56.0464 714.734 88.5367 714.734 135.718C714.734 182.9 683.091 215.39 637.04 215.39ZM637.04 180.922C659.359 180.922 672.921 163.971 672.921 135.718C672.921 107.466 659.359 90.5144 637.04 90.5144C614.721 90.5144 601.159 107.466 601.159 135.718C601.159 163.971 614.721 180.922 637.04 180.922Z" fill="#0B0605"/>
<path d="M459.038 212V59.4367H500.569V77.8008H502.264C507.35 63.6746 518.368 56.0464 534.19 56.0464H555.379L558.769 98.9901H528.539C510.458 98.9901 500.569 106.901 500.569 121.592V212H459.038Z" fill="#0B0605"/>
<path d="M288.336 212V12.5376H371.116C416.885 12.5376 446.267 38.5299 446.267 79.2134C446.267 120.179 416.885 146.737 371.116 146.737H331.845V212H288.336ZM371.116 108.878C390.327 108.878 402.758 97.5775 402.758 80.061C402.758 62.5444 390.327 51.2435 371.116 51.2435H331.845V108.878H371.116Z" fill="#0B0605"/>
</g>
</svg>
