<svg width="123" height="21" viewBox="0 0 123 21" fill="none" xmlns="http://www.w3.org/2000/svg">
<path fill-rule="evenodd" clip-rule="evenodd" d="M7.75283 0.857422L0 20.8289H2.61906L9.1665 3.60073L15.7139 20.8289H15.7625L15.6704 20.5866L15.767 20.8289H18.4674L10.7436 0.857422H7.75283ZM12.1316 11.2748L12.8566 13.1827H12.8633L12.1316 11.2748Z" fill="#E9E9E0"/>
<path fill-rule="evenodd" clip-rule="evenodd" d="M112.285 0.857422L104.533 20.8289H107.169L113.716 3.60073L120.264 20.8289H120.295L120.203 20.5865L120.3 20.8289H123L115.276 0.857422H112.285ZM117.389 13.1827H117.396L116.664 11.2753L117.389 13.1827Z" fill="#E9E9E0"/>
<path d="M18.8896 0.857422H34.5985V3.13988H28.1916C28.0902 3.50161 28.0365 3.90674 28.0365 4.34578V17.3405C28.0365 18.9915 28.7969 20.1898 29.9883 20.3496V20.8289H23.5243V20.3496C24.7157 20.1632 25.4508 18.9915 25.4508 17.3405V4.34578C25.4508 3.90674 25.3989 3.50161 25.3001 3.13988H18.8896V0.857422Z" fill="#E9E9E0"/>
<path d="M76.0296 0.857422V3.13988H65.7719C65.6706 3.50161 65.6168 3.90674 65.6168 4.34578V9.53075H74.2874V11.8132H65.6168V17.3405C65.6168 17.7779 65.6702 18.1835 65.7708 18.5464H76.4071V20.8289H61.1047V20.3496C62.2961 20.1632 63.0312 18.9915 63.0312 17.3405V4.34578C63.0312 2.6948 62.2961 1.52314 61.1047 1.33674V0.857425L76.0296 0.857422Z" fill="#E9E9E0"/>
<path d="M81.2071 20.8289V20.3496C82.3985 20.1632 83.1336 18.9915 83.1336 17.3405V4.34578C83.1336 2.6948 82.3985 1.52314 81.2071 1.33674V0.857425H87.6711V1.33674C87.2137 1.4083 86.8198 1.62508 86.5081 1.95844L96.5352 16.108V4.34578C96.5352 2.6948 95.8001 1.52314 94.6087 1.33674V0.857425H101.073V1.33674C99.8813 1.52314 99.1208 2.6948 99.1208 4.34578V17.3405C99.1208 18.9915 99.8813 20.1898 101.073 20.3496V20.8289H94.6087V20.3496C95.1355 20.2672 95.5732 19.9921 95.8974 19.5681L85.8731 5.42233V18.5459C86.1522 19.5533 86.7952 20.2321 87.6711 20.3496V20.8289H81.2071Z" fill="#E9E9E0"/>
<path d="M41.0357 0.857422H38.5095V0.885955H36.535V1.36527C37.7264 1.55167 38.4616 2.72333 38.4616 4.37431V17.3691C38.4616 19.02 37.7264 20.1917 36.535 20.3781V20.8574H42.9991V20.3781C41.8077 20.2183 41.0472 19.02 41.0472 17.3691V11.8417H51.5471V18.3318C51.3146 19.4645 50.6571 20.2304 49.7133 20.3781V20.8574H56.1773V20.3781C54.9859 20.2183 54.2254 19.02 54.2254 17.3691V4.37431C54.2254 2.72333 54.9859 1.55167 56.1773 1.36527V0.885955H54.0733V0.857422H51.5471V0.885955H49.7133V1.36527C50.6571 1.51293 51.3146 2.27888 51.5471 3.4116V9.55928H41.0472V4.37431C41.0472 2.72333 41.8077 1.55167 42.9991 1.36527V0.885955H41.0357V0.857422Z" fill="#E9E9E0"/>
</svg>
